<?xml version="1.0" standalone="no"?>
<!DOCTYPE svg PUBLIC "-//W3C//DTD SVG 20010904//EN"
 "http://www.w3.org/TR/2001/REC-SVG-20010904/DTD/svg10.dtd">
<svg version="1.0" xmlns="http://www.w3.org/2000/svg"
 width="1000.000000pt" height="1000.000000pt" viewBox="0 0 1000.000000 1000.000000"
 preserveAspectRatio="xMidYMid meet">
<metadata>
Created by potrace 1.14, written by Peter Selinger 2001-2017
</metadata>
<g transform="translate(0.000000,1000.000000) scale(0.100000,-0.100000)"
fill="#000000" stroke="none">
<path d="M5322 9594 c-44 -23 -75 -84 -67 -132 6 -37 4 -38 -170 -212 l-175
-175 0 -762 0 -763 -87 0 -88 0 0 592 0 593 27 18 c37 25 61 81 54 122 -8 39
-56 95 -81 95 -10 0 -75 58 -145 129 l-128 130 1 48 c0 26 -5 58 -12 71 -15
29 -69 62 -99 62 -63 0 -132 -65 -132 -125 0 -68 79 -133 145 -121 32 6 39 1
144 -100 l112 -107 -23 -24 c-18 -20 -23 -36 -23 -80 0 -51 3 -58 38 -88 l37
-32 0 -592 0 -591 -115 0 -115 0 0 324 0 324 34 25 c46 36 62 77 48 126 -17
55 -52 83 -111 89 -43 4 -55 11 -98 54 -44 44 -48 53 -48 96 0 59 -24 98 -72
119 -102 42 -202 -58 -159 -160 21 -52 69 -79 126 -73 42 4 48 2 91 -41 45
-43 46 -46 36 -79 -14 -47 5 -107 43 -134 l30 -21 0 -325 0 -324 -382 0 c-211
0 -388 -4 -394 -8 -9 -6 -105 -170 -379 -644 -59 -104 -110 -188 -113 -188 -3
0 -130 127 -282 283 -234 238 -276 285 -270 302 11 29 -14 95 -46 123 l-27 23
39 77 c34 67 43 78 71 83 79 15 118 81 94 159 -28 93 -160 110 -211 28 -31
-50 -33 -72 -12 -116 l19 -40 -49 -98 c-28 -53 -62 -107 -77 -120 -15 -12 -32
-40 -39 -60 -10 -32 -8 -44 7 -80 23 -52 67 -77 123 -72 l40 4 290 -287 290
-286 -29 -51 -29 -51 -485 485 -484 484 3 50 c4 47 1 53 -36 91 l-41 40 50 99
c45 92 52 100 86 110 21 6 45 16 54 23 22 17 49 71 49 99 0 33 -35 85 -69 103
-103 53 -218 -54 -167 -156 9 -17 16 -35 16 -40 0 -23 -115 -240 -144 -273
-23 -25 -36 -48 -36 -66 0 -27 -2 -28 -38 -23 -44 6 -92 -14 -116 -48 -14 -21
-18 -21 -118 -10 -213 22 -263 31 -267 43 -2 7 -19 28 -38 46 -45 42 -106 45
-151 7 -64 -54 -67 -131 -6 -184 49 -43 109 -44 158 -1 l34 31 149 -16 c213
-22 219 -24 234 -51 21 -39 59 -58 116 -57 l52 0 522 -526 c482 -486 520 -527
508 -546 -7 -11 -72 -123 -144 -250 -73 -126 -177 -306 -232 -400 l-99 -170
-601 -3 c-704 -3 -660 -11 -539 105 l75 73 45 -6 c40 -6 50 -3 81 21 44 33 70
84 61 118 -10 40 -54 86 -95 98 -78 23 -156 -44 -148 -126 4 -39 2 -42 -87
-127 -73 -69 -97 -87 -121 -88 -59 0 -105 -56 -105 -126 0 -29 8 -44 39 -75
31 -31 46 -39 75 -39 45 0 88 21 112 55 l19 25 567 -2 567 -3 -53 -90 -52 -90
-637 -3 -637 -2 -34 37 c-31 35 -39 38 -86 38 -47 0 -55 -3 -86 -37 -19 -21
-34 -48 -34 -60 -1 -18 -19 -34 -82 -73 -45 -27 -97 -60 -116 -73 -33 -22 -37
-22 -72 -8 -65 26 -133 -7 -159 -76 -14 -38 -4 -80 28 -118 69 -83 211 -27
211 83 0 21 17 35 102 89 127 78 115 74 139 52 14 -12 36 -18 71 -18 46 0 54
4 84 37 l34 37 647 -2 647 -3 57 -100 58 -100 -541 -3 -541 -2 -38 40 c-35 36
-43 40 -88 40 -57 0 -100 -28 -121 -80 -29 -70 35 -160 114 -160 32 0 46 -8
94 -54 53 -51 56 -56 56 -106 1 -46 5 -55 38 -86 65 -59 153 -42 193 36 20 39
19 69 -5 107 -29 48 -63 66 -123 65 -48 -1 -56 2 -101 44 -84 77 -106 74 545
74 l568 0 50 -86 c28 -47 51 -88 51 -90 0 -2 62 -110 138 -241 77 -131 150
-258 164 -283 14 -25 91 -158 171 -297 81 -139 156 -268 167 -287 11 -20 29
-51 39 -70 l19 -33 -371 -370 -372 -371 -37 5 c-33 5 -38 9 -39 32 0 14 -4 35
-9 46 -6 15 -1 27 17 47 77 82 0 225 -110 204 -44 -8 -95 -59 -103 -103 -8
-45 22 -103 66 -125 35 -18 44 -33 59 -100 6 -27 5 -42 -5 -55 -7 -10 -14 -39
-14 -65 0 -114 132 -166 211 -82 19 20 24 38 26 81 l1 56 359 359 c197 197
360 358 364 358 4 0 87 -136 97 -160 1 -4 -199 -210 -445 -458 l-448 -451 -45
6 c-82 9 -145 -60 -133 -144 6 -36 57 -93 83 -93 9 0 43 -11 75 -24 52 -21 60
-28 74 -67 19 -51 68 -89 115 -89 61 0 126 63 126 122 0 51 -74 128 -123 128
-10 0 -35 -9 -57 -20 -43 -22 -76 -18 -63 9 4 9 8 40 8 69 l0 53 438 435 c314
311 442 432 450 425 7 -5 28 -39 47 -75 l35 -66 -170 -170 c-163 -163 -171
-170 -202 -164 -61 11 -105 -12 -137 -73 -21 -41 -20 -55 4 -103 24 -47 45
-60 97 -60 34 0 46 -8 115 -78 75 -77 76 -78 71 -122 -5 -57 23 -105 74 -126
138 -58 237 130 112 213 -31 20 -47 25 -79 20 -38 -5 -42 -2 -111 64 l-71 68
12 36 c7 20 10 49 7 64 -5 25 11 44 158 191 90 90 166 162 168 160 2 -3 16
-27 32 -55 15 -27 35 -58 43 -67 14 -17 71 -18 919 -18 l903 0 0 -439 0 -440
-31 -21 c-17 -13 -34 -32 -39 -45 -7 -19 -18 -23 -86 -28 l-77 -7 -35 34 c-57
58 -126 60 -178 5 -25 -26 -29 -38 -29 -84 0 -62 25 -97 82 -115 56 -19 95 -2
151 65 10 11 33 15 97 15 51 0 85 -4 85 -10 0 -18 64 -50 98 -50 52 0 91 26
113 75 18 41 18 46 3 84 -9 23 -29 51 -45 62 l-29 20 0 440 0 439 45 0 45 0 0
-304 0 -305 -29 -20 c-63 -45 -65 -138 -4 -191 33 -29 41 -32 87 -27 42 4 55
10 78 38 53 63 44 132 -22 181 l-30 22 0 303 0 303 65 0 65 0 0 -645 0 -646
-40 -38 c-34 -33 -40 -44 -40 -80 0 -75 52 -131 122 -131 32 0 75 22 90 45 4
6 45 37 91 69 82 56 85 57 122 47 68 -19 135 13 155 74 35 106 -72 201 -170
150 -36 -18 -70 -73 -70 -112 0 -25 -9 -36 -51 -66 l-51 -36 -34 36 -34 36 -3
649 -2 648 256 0 c231 0 257 2 271 18 13 14 100 162 190 322 11 19 59 102 106
183 l86 148 551 -551 551 -551 0 -54 c-1 -39 5 -61 19 -81 l21 -27 -44 -41
c-42 -39 -48 -41 -97 -38 -44 3 -56 0 -83 -23 -59 -50 -62 -125 -5 -181 27
-27 42 -34 73 -34 81 0 134 54 129 131 -3 40 -1 45 61 101 36 33 81 68 102 80
51 29 75 85 59 138 -18 60 -67 93 -130 88 l-50 -3 -536 535 c-295 294 -545
547 -556 562 -19 26 -19 28 -2 62 10 20 20 36 23 36 3 0 218 -213 478 -473
464 -464 473 -474 461 -500 -16 -34 1 -76 48 -117 66 -58 155 -26 192 68 9 22
47 77 85 122 65 74 72 80 108 80 81 0 128 46 128 123 0 42 -5 54 -34 83 -29
29 -41 34 -83 34 -55 0 -86 -17 -108 -60 -17 -33 -20 -96 -5 -105 6 -4 -10
-31 -38 -63 -27 -31 -57 -67 -67 -79 -17 -20 -20 -20 -39 -7 -11 8 -43 14 -71
14 l-50 0 -478 478 c-262 262 -477 481 -477 485 0 7 76 144 87 157 2 2 138
-130 302 -294 l299 -299 -5 -38 c-7 -51 10 -89 52 -118 66 -45 164 -12 183 62
6 23 31 46 107 98 l99 68 62 -6 c53 -5 66 -3 92 16 16 11 37 39 46 61 14 35
14 45 2 73 -45 109 -181 116 -227 12 -10 -24 -17 -50 -14 -57 6 -14 -37 -51
-142 -121 l-42 -29 -29 22 c-22 17 -43 22 -79 22 l-48 -2 -302 303 c-167 166
-303 306 -303 310 0 4 25 52 56 105 31 53 68 117 82 142 14 25 76 134 140 243
l114 197 57 0 c31 0 103 -4 161 -9 58 -5 263 -12 455 -15 475 -8 553 -13 560
-37 19 -58 122 -80 178 -36 l32 24 252 -126 c234 -116 253 -128 259 -156 8
-37 38 -81 66 -96 31 -16 93 -13 123 7 53 34 70 110 39 164 -34 56 -114 78
-163 43 -23 -16 -30 -13 -292 118 -208 103 -269 138 -269 152 0 11 -15 34 -34
53 -28 28 -42 34 -76 34 -45 0 -104 -29 -114 -57 -6 -14 -30 -15 -229 -10
-394 10 -952 29 -956 33 -2 1 6 15 16 31 11 15 37 59 57 96 l38 69 711 -7
c392 -3 736 -8 764 -11 38 -4 58 -12 70 -28 30 -37 66 -56 106 -56 32 0 46 7
78 39 22 21 39 48 39 58 0 13 26 40 73 76 72 55 75 56 123 51 85 -10 144 38
144 116 0 134 -184 166 -236 42 -8 -20 -12 -47 -9 -59 4 -18 -6 -30 -56 -69
-61 -46 -62 -47 -89 -30 -16 9 -49 16 -75 16 -41 0 -52 -5 -83 -37 l-37 -36
-350 7 c-192 3 -522 9 -732 13 -211 3 -383 8 -383 9 0 2 23 42 50 89 l51 85
57 0 c54 -1 120 -4 652 -30 l225 -11 28 -34 c39 -48 92 -63 138 -40 37 20 69
51 69 70 0 6 17 24 38 39 20 15 171 128 336 250 l298 223 37 -10 c49 -13 88
-2 121 33 55 59 42 140 -29 187 -41 27 -61 29 -108 6 -43 -20 -73 -66 -73
-113 0 -35 -6 -40 -307 -265 -168 -127 -310 -232 -315 -234 -5 -2 -20 7 -32
18 -49 46 -135 36 -179 -20 l-23 -29 -79 9 c-44 5 -177 12 -295 15 -179 5
-543 25 -546 30 0 0 -30 53 -66 116 -36 63 -78 138 -94 165 -15 28 -81 142
-147 255 -159 273 -156 268 -185 320 -13 25 -82 144 -152 265 -202 349 -461
797 -480 831 l-18 31 298 298 299 298 54 1 c38 1 61 7 75 19 26 24 43 3 36
-45 -7 -40 10 -80 50 -117 19 -18 37 -24 69 -24 76 0 123 51 121 131 -1 39 -6
50 -39 80 -34 31 -41 34 -86 30 -42 -4 -51 -2 -72 21 -14 14 -27 38 -31 53 -8
36 -58 84 -94 91 -42 9 -73 -2 -109 -36 -30 -28 -33 -37 -33 -87 l0 -55 -290
-290 c-229 -228 -293 -287 -300 -275 -5 8 -38 65 -74 125 l-65 110 556 556
555 557 55 -2 c51 -1 57 2 89 36 27 30 34 46 34 79 0 39 -26 99 -42 99 -4 0
-8 61 -8 135 l0 135 37 33 c30 29 36 40 37 78 1 58 -31 104 -84 120 -48 14
-81 6 -121 -29 -56 -50 -46 -155 16 -184 25 -11 25 -13 25 -135 0 -121 0 -124
-24 -133 -13 -5 -36 -25 -51 -45 -23 -29 -27 -42 -23 -79 l5 -44 -546 -544
-546 -543 -150 3 -150 3 282 281 282 281 55 1 c43 1 60 6 79 24 54 51 60 127
12 172 -25 23 -25 24 -25 211 l0 188 30 21 c33 24 60 68 60 99 0 56 -71 131
-124 131 -24 0 -78 -29 -98 -53 -41 -46 -27 -137 26 -172 l26 -17 0 -182 0
-182 -32 -12 c-49 -18 -73 -57 -73 -120 l0 -52 -230 -231 c-127 -127 -269
-266 -317 -310 l-88 -79 -480 0 -480 0 0 743 0 742 164 164 165 164 55 1 c48
1 60 5 87 32 36 36 49 103 27 143 -32 59 -109 84 -166 55z m-2422 -3192 c-17
-29 -35 -51 -38 -50 -4 0 -238 234 -520 518 -472 475 -513 519 -507 543 6 22
11 25 35 21 15 -4 36 -1 47 5 16 9 82 -54 516 -488 l499 -498 -32 -51z m3470
883 c42 -72 88 -150 102 -175 61 -108 291 -505 352 -608 36 -62 66 -115 66
-117 0 -2 46 -81 101 -177 96 -163 202 -347 501 -866 70 -123 128 -228 128
-232 0 -4 -42 -79 -93 -167 -132 -224 -158 -273 -151 -285 4 -6 3 -8 -3 -5 -5
4 -16 -6 -24 -21 -7 -15 -22 -39 -32 -54 -10 -16 -15 -33 -11 -39 4 -7 3 -9
-3 -6 -6 4 -23 -17 -38 -46 -16 -29 -37 -64 -47 -80 -11 -15 -16 -27 -11 -27
4 0 3 -4 -3 -8 -11 -7 -80 -121 -144 -237 -18 -33 -44 -79 -57 -102 -14 -24
-22 -43 -19 -43 3 0 -2 -8 -11 -18 -10 -10 -27 -35 -38 -57 -11 -22 -22 -42
-26 -45 -20 -19 -129 -222 -123 -232 4 -6 3 -8 -3 -5 -5 3 -20 -13 -33 -36
-13 -23 -94 -163 -180 -312 -86 -148 -183 -316 -214 -372 l-58 -103 -1333 0
-1333 0 -52 93 c-65 114 -306 530 -495 857 -78 135 -156 270 -173 301 -17 31
-99 172 -181 314 -83 141 -151 259 -151 261 0 2 -61 107 -135 234 -74 127
-135 235 -135 240 0 12 126 231 580 1015 125 215 147 253 198 345 14 25 38 64
53 87 16 23 29 44 29 48 0 3 50 92 111 198 62 106 123 212 137 237 51 91 205
355 215 368 8 9 282 12 1335 10 l1325 -3 77 -130z"/>
<path d="M2806 5378 c3 -5 10 -6 15 -3 13 9 11 12 -6 12 -8 0 -12 -4 -9 -9z"/>
<path d="M2776 5367 c3 -10 9 -15 12 -12 3 3 0 11 -7 18 -10 9 -11 8 -5 -6z"/>
<path d="M2770 5299 c0 -5 5 -7 10 -4 6 3 10 8 10 11 0 2 -4 4 -10 4 -5 0 -10
-5 -10 -11z"/>
<path d="M2775 4880 c3 -5 8 -10 11 -10 2 0 4 5 4 10 0 6 -5 10 -11 10 -5 0
-7 -4 -4 -10z"/>
<path d="M5435 3900 c-3 -5 -1 -10 4 -10 6 0 11 5 11 10 0 6 -2 10 -4 10 -3 0
-8 -4 -11 -10z"/>
<path d="M5710 3881 c0 -6 4 -12 8 -15 5 -3 9 1 9 9 0 8 -4 15 -9 15 -4 0 -8
-4 -8 -9z"/>
<path d="M5415 3871 c-3 -5 -2 -12 3 -15 5 -3 9 1 9 9 0 17 -3 19 -12 6z"/>
<path d="M5649 3843 c-13 -16 -12 -17 4 -4 9 7 17 15 17 17 0 8 -8 3 -21 -13z"/>
</g>
</svg>
