<?xml version="1.0" standalone="no"?>
<!DOCTYPE svg PUBLIC "-//W3C//DTD SVG 20010904//EN"
 "http://www.w3.org/TR/2001/REC-SVG-20010904/DTD/svg10.dtd">
<svg version="1.0" xmlns="http://www.w3.org/2000/svg"
 width="30.000000pt" height="30.000000pt" viewBox="0 0 300.000000 300.000000"
 preserveAspectRatio="xMidYMid meet">

<g transform="translate(0.000000,300.000000) scale(0.100000,-0.100000)"
fill="#000000" stroke="none" opacity="0.7">
<path d="M27 2953 c-21 -45 -22 -64 -25 -337 l-3 -290 198 -198 198 -198 -198
-198 -197 -197 0 -50 0 -50 187 -187 188 -188 -188 -188 -188 -188 3 -295 c3
-289 3 -295 27 -341 l25 -48 287 0 c176 0 299 4 316 10 15 6 109 92 208 190
l180 180 190 -190 190 -190 75 0 75 0 188 188 188 187 182 -188 182 -188 309
1 310 0 33 36 33 37 0 306 0 306 -187 187 -188 188 188 188 c251 251 252 209
-13 476 l-200 202 200 199 200 200 0 310 0 310 -43 25 c-42 25 -43 25 -341 28
l-300 3 -197 -197 -198 -197 -68 56 c-103 84 -256 246 -277 295 l-19 42 -63 0
c-47 0 -62 -3 -59 -12 3 -7 -78 -96 -180 -198 l-185 -185 -198 198 -197 197
-313 0 -313 0 -22 -47z m1530 -75 c23 -15 77 -67 120 -115 43 -48 102 -112
131 -143 28 -31 52 -61 52 -66 0 -12 -353 -364 -365 -364 -13 0 -365 352 -365
365 0 5 79 89 177 187 124 124 181 175 192 170 9 -3 35 -18 58 -34z m-989
-391 l193 -193 -31 -29 -31 -29 -189 189 c-105 105 -190 196 -190 204 0 18 29
51 44 51 6 0 98 -87 204 -193z m2102 150 c0 -6 -86 -98 -192 -204 l-192 -193
-28 27 -29 27 192 192 193 193 28 -15 c15 -8 28 -20 28 -27z m-1515 -797 l-25
-25 -187 187 -187 187 24 26 24 26 188 -188 188 -188 -25 -25z m893 163 c-140
-140 -185 -180 -195 -171 -42 34 7 108 182 276 l139 132 28 -27 29 -27 -183
-183z m-1541 -175 c23 -15 77 -67 120 -115 43 -48 102 -112 131 -143 28 -31
52 -61 52 -66 0 -5 -87 -95 -192 -201 l-193 -193 -187 187 -188 188 192 192
c135 135 196 190 207 185 9 -3 35 -18 58 -34z m2093 6 c19 -12 67 -55 105 -96
124 -132 225 -246 225 -255 0 -4 -83 -91 -185 -193 l-185 -185 -190 190 c-105
104 -190 197 -190 205 0 8 79 94 177 192 124 124 181 174 192 170 9 -3 32 -15
51 -28z m-1080 -309 l23 -25 -23 -25 -24 -25 -28 27 -28 27 22 23 c27 29 29
29 58 -2z m-360 -360 l24 -26 -194 -194 c-156 -156 -197 -192 -208 -183 -19
16 -9 60 28 112 28 41 307 316 320 316 4 0 17 -11 30 -25z m1065 -395 l-25
-25 -197 197 -197 197 24 26 24 26 198 -198 198 -198 -25 -25z m-675 14 c19
-12 67 -55 105 -96 123 -131 225 -246 225 -255 0 -4 -87 -94 -192 -200 l-193
-193 -197 197 -198 198 192 192 c135 135 196 189 207 185 9 -3 32 -15 51 -28z
m-820 -87 c0 -7 -83 -95 -185 -197 -182 -182 -184 -184 -205 -165 -11 10 -20
25 -20 34 0 9 80 95 177 193 l176 177 29 -15 c15 -8 28 -20 28 -27z m1940
-320 c0 -14 -31 -47 -44 -47 -6 0 -92 81 -191 180 l-179 179 23 25 24 25 183
-176 c101 -96 184 -180 184 -186z"/>
</g>
</svg>
